<?xml version="1.0" encoding="utf-8"?>
<svg xmlns="http://www.w3.org/2000/svg" style="margin: auto; display: block; shape-rendering: auto; animation-play-state: running; animation-delay: 0s; background: rgba(0, 0, 0, 0) none repeat scroll 0% 0%;" width="268" height="41" preserveAspectRatio="xMidYMid">
<style type="text/css" style="animation-play-state: running; animation-delay: 0s;">
  text {
    text-anchor: middle; font-size: 36px; opacity: 0;
  }
</style>
<g style="transform-origin: 134px 20.5px 0px; transform: scale(1.56522); animation-play-state: running; animation-delay: 0s;">
<g transform="translate(134,20.5)" style="animation-play-state: running; animation-delay: 0s;">
  <g transform="translate(0,0)" style="animation-play-state: running; animation-delay: 0s;"><g class="path" style="transform: scale(0.91); transform-origin: -57.5762px 1.10156px 0px; animation: 1s linear -0.586667s infinite normal forwards running breath-2e122b66-e972-4902-b5b6-92bdf340ef22;"><path d="M4.93-4.19L4.93-4.19L4.93-4.19Q4.30-4.67 3.82-5.66L3.82-5.66L3.82-5.66Q3.33-6.65 3.33-7.89L3.33-7.89L3.33-7.89Q3.33-9.13 3.73-10.19L3.73-10.19L3.73-10.19Q4.12-11.25 4.89-12.11L4.89-12.11L4.89-12.11Q5.66-12.97 6.95-13.49L6.95-13.49L6.95-13.49Q8.23-14.01 9.68-14.01L9.68-14.01L9.68-14.01Q11.13-14.01 12.30-13.79L12.30-13.79L12.30-13.79Q13.48-13.57 14.14-13.33L14.14-13.33L14.14-13.33Q14.81-13.09 15.33-12.87L15.33-12.87L15.33-12.87Q15.85-12.65 16.17-12.52L16.17-12.52L16.17-12.52Q16.49-12.40 16.56-12.37L16.56-12.37L16.56-12.37Q16.63-12.35 16.93-12.24L16.93-12.24L16.93-12.24Q17.23-12.12 17.33-12.10L17.33-12.10L17.33-12.10Q17.43-12.07 17.70-11.98L17.70-11.98L17.70-11.98Q17.96-11.89 18.11-11.87L18.11-11.87L18.11-11.87Q18.26-11.85 18.52-11.79L18.52-11.79L18.52-11.79Q18.77-11.73 18.95-11.72L18.95-11.72L18.95-11.72Q19.14-11.71 19.39-11.68L19.39-11.68L19.39-11.68Q19.64-11.66 19.87-11.66L19.87-11.66L19.87-11.66Q21.00-11.66 21.84-12.04L21.84-12.04L21.84-12.04Q22.68-12.42 23.06-12.88L23.06-12.88L23.06-12.88Q23.44-13.34 23.67-13.94L23.67-13.94L23.67-13.94Q23.94-14.67 23.94-15.27L23.94-15.27L24.45-15.27L24.45-15.27Q24.45-14.72 24.16-13.93L24.16-13.93L24.16-13.93Q23.87-13.13 23.45-12.59L23.45-12.59L23.45-12.59Q23.02-12.05 22.08-11.62L22.08-11.62L22.08-11.62Q21.14-11.18 19.84-11.18L19.84-11.18L19.84-11.18Q18.54-11.18 17.23-11.59L17.23-11.59L17.23-11.59Q15.66-9.38 13.94-2.69L13.94-2.69L13.94-2.69Q13.09 0.67 11.49 2.20L11.49 2.20L11.49 2.20Q9.89 3.73 6.87 3.73L6.87 3.73L6.87 3.73Q3.84 3.73 2.35 1.89L2.35 1.89L2.35 1.89Q1.03 0.25 1.03-1.91L1.03-1.91L1.03-1.91Q1.03-2.19 1.06-2.46L1.06-2.46L1.59-2.46L1.59-2.14L1.59-2.14Q1.59-0.55 2.44 0.97L2.44 0.97L2.44 0.97Q2.81 1.61 3.32 2.08L3.32 2.08L3.32 2.08Q3.84 2.55 4.71 2.88L4.71 2.88L4.71 2.88Q5.59 3.20 6.67 3.20L6.67 3.20L6.67 3.20Q8.46 3.20 9.51 1.75L9.51 1.75L9.51 1.75Q10.56 0.30 11.53-3.85L11.53-3.85L11.53-3.85Q12.51-8.00 13.54-9.79L13.54-9.79L13.54-9.79Q14.56-11.57 16.51-11.85L16.51-11.85L16.51-11.85Q15.92-12.07 15.25-12.36L15.25-12.36L15.25-12.36Q14.58-12.65 13.97-12.87L13.97-12.87L13.97-12.87Q13.36-13.09 12.22-13.31L12.22-13.31L12.22-13.31Q11.09-13.52 9.68-13.52L9.68-13.52L9.68-13.52Q8.28-13.52 7.07-13.02L7.07-13.02L7.07-13.02Q5.87-12.51 5.20-11.68L5.20-11.68L5.20-11.68Q3.86-10.07 3.86-7.96L3.86-7.96L3.86-7.96Q3.86-6.76 4.30-5.85L4.30-5.85L4.30-5.85Q4.74-4.95 5.36-4.51L5.36-4.51L5.36-4.51Q6.62-3.66 7.66-3.54L7.66-3.54L8.10-3.50L7.96-2.99L7.96-2.99Q7.38-2.99 6.47-3.35L6.47-3.35L6.47-3.35Q5.57-3.70 4.93-4.19" fill="#51cacc" stroke="none" stroke-width="none" transform="translate(-70.3166732788086,6.870258314344616)" style="fill: rgb(81, 202, 204); animation-play-state: running; animation-delay: 0s;"></path></g><g class="path" style="transform: scale(0.91); transform-origin: -43.3867px 2.50195px 0px; animation: 1s linear -0.513333s infinite normal forwards running breath-2e122b66-e972-4902-b5b6-92bdf340ef22;"><path d="M27.95-8.95L27.95-8.95L27.95-8.95Q30.87-8.95 30.87-6.62L30.87-6.62L30.87-6.62Q30.87-5.17 29.50-4.43L29.50-4.43L29.50-4.43Q28.13-3.68 25.60-3.66L25.60-3.66L25.60-3.66Q25.55-2.83 25.55-2.35L25.55-2.35L25.55-2.35Q25.55-1.31 26.02-0.82L26.02-0.82L26.02-0.82Q26.50-0.32 27.21-0.32L27.21-0.32L27.21-0.32Q27.92-0.32 28.51-0.60L28.51-0.60L28.51-0.60Q29.09-0.87 29.44-1.25L29.44-1.25L29.44-1.25Q29.79-1.63 30.04-2.05L30.04-2.05L30.04-2.05Q30.50-2.81 30.50-3.01L30.50-3.01L30.91-2.83L30.91-2.83Q30.84-2.46 30.50-1.85L30.50-1.85L30.50-1.85Q30.15-1.24 29.74-0.85L29.74-0.85L29.74-0.85Q29.33-0.46 28.52-0.13L28.52-0.13L28.52-0.13Q27.71 0.21 26.73 0.21L26.73 0.21L26.73 0.21Q24.86 0.21 23.91-0.68L23.91-0.68L23.91-0.68Q22.95-1.56 22.95-3.10L22.95-3.10L22.95-3.10Q22.95-5.84 24.31-7.39L24.31-7.39L24.31-7.39Q25.67-8.95 27.95-8.95zM30.29-6.62L30.29-6.62Q30.29-7.38 29.84-7.88L29.84-7.88L29.84-7.88Q29.39-8.37 28.51-8.37L28.51-8.37L28.51-8.37Q27.62-8.37 26.78-7.31L26.78-7.31L26.78-7.31Q25.94-6.26 25.67-4.19L25.67-4.19L25.67-4.19Q30.29-4.21 30.29-6.62L30.29-6.62" fill="#51cacc" stroke="none" stroke-width="none" transform="translate(-70.3166732788086,6.870258314344616)" style="fill: rgb(157, 248, 113); animation-play-state: running; animation-delay: 0s;"></path></g><g class="path" style="transform: scale(0.91); transform-origin: -33.5527px 2.50195px 0px; animation: 1s linear -0.44s infinite normal forwards running breath-2e122b66-e972-4902-b5b6-92bdf340ef22;"><path d="M38.04-4.37L39.24-1.45L39.24-1.45Q39.51-0.74 40.12-0.74L40.12-0.74L40.12-0.74Q40.73-0.74 41.15-1.52L41.15-1.52L41.52-1.31L41.52-1.31Q41.28-0.92 41.11-0.70L41.11-0.70L41.11-0.70Q40.94-0.48 40.45-0.24L40.45-0.24L40.45-0.24Q39.95 0 39.24 0L39.24 0L39.24 0Q37.21 0 36.52-1.70L36.52-1.70L35.65-3.82L35.65-3.82Q34.29-3.68 33.47-3.13L33.47-3.13L33.49-3.13L33.49-3.13Q34.18-3.13 34.66-2.65L34.66-2.65L34.66-2.65Q35.14-2.16 35.14-1.47L35.14-1.47L35.14-1.47Q35.14-0.78 34.66-0.29L34.66-0.29L34.66-0.29Q34.18 0.21 33.49 0.21L33.49 0.21L33.49 0.21Q32.80 0.21 32.30-0.29L32.30-0.29L32.30-0.29Q31.81-0.78 31.81-1.47L31.81-1.47L31.81-1.47Q31.81-2.60 32.86-3.39L32.86-3.39L32.86-3.39Q33.90-4.19 35.44-4.35L35.44-4.35L34.18-7.50L34.18-7.50Q33.90-8.21 33.32-8.21L33.32-8.21L33.32-8.21Q32.73-8.21 32.27-7.43L32.27-7.43L31.92-7.64L31.92-7.64Q32.15-8.03 32.33-8.25L32.33-8.25L32.33-8.25Q32.50-8.46 32.99-8.71L32.99-8.71L32.99-8.71Q33.49-8.95 34.20-8.95L34.20-8.95L34.20-8.95Q36.20-8.95 36.89-7.25L36.89-7.25L37.84-4.90L37.84-4.90Q39.26-5.04 40.07-5.61L40.07-5.61L40.04-5.61L40.04-5.61Q39.35-5.61 38.87-6.09L38.87-6.09L38.87-6.09Q38.39-6.58 38.39-7.27L38.39-7.27L38.39-7.27Q38.39-7.96 38.87-8.45L38.87-8.45L38.87-8.45Q39.35-8.95 40.04-8.95L40.04-8.95L40.04-8.95Q40.73-8.95 41.23-8.45L41.23-8.45L41.23-8.45Q41.72-7.96 41.72-7.27L41.72-7.27L41.72-7.27Q41.72-6.09 40.64-5.30L40.64-5.30L40.64-5.30Q39.56-4.51 38.04-4.37L38.04-4.37" fill="#51cacc" stroke="none" stroke-width="none" transform="translate(-70.3166732788086,6.870258314344616)" style="fill: rgb(224, 255, 119); animation-play-state: running; animation-delay: 0s;"></path></g><g class="path" style="transform: scale(0.91); transform-origin: -23.9219px 0.800781px 0px; animation: 1s linear -0.366667s infinite normal forwards running breath-2e122b66-e972-4902-b5b6-92bdf340ef22;"><path d="M43.03-8.74L44.21-8.74L44.83-12.14L44.83-12.14Q46.53-12.14 47.36-12.28L47.36-12.28L47.66-12.35L47.66-12.35Q47.33-10.74 46.94-8.74L46.94-8.74L49.80-8.74L49.75-8.33L46.87-8.33L46.87-8.33Q45.72-2.39 45.72-1.17L45.72-1.17L45.72-1.17Q45.72-0.44 46.51-0.44L46.51-0.44L46.51-0.44Q47.29-0.44 47.93-1.43L47.93-1.43L47.93-1.43Q48.58-2.42 48.85-3.56L48.85-3.56L49.27-3.43L49.27-3.43Q48.41 0.21 45.75 0.21L45.75 0.21L45.75 0.21Q44.64 0.21 43.91-0.40L43.91-0.40L43.91-0.40Q43.17-1.01 43.17-2.10L43.17-2.10L43.17-2.10Q43.17-3.20 44.11-8.33L44.11-8.33L42.99-8.33L43.03-8.74" fill="#51cacc" stroke="none" stroke-width="none" transform="translate(-70.3166732788086,6.870258314344616)" style="fill: rgb(222, 157, 214); animation-play-state: running; animation-delay: 0s;"></path></g><g class="path" style="transform: scale(0.91); transform-origin: -11.6211px 0.800781px 0px; animation: 1s linear -0.293333s infinite normal forwards running breath-2e122b66-e972-4902-b5b6-92bdf340ef22;"><path d="M55.34-8.74L56.51-8.74L57.13-12.14L57.13-12.14Q58.83-12.14 59.66-12.28L59.66-12.28L59.96-12.35L59.96-12.35Q59.64-10.74 59.25-8.74L59.25-8.74L62.10-8.74L62.05-8.33L59.18-8.33L59.18-8.33Q58.03-2.39 58.03-1.17L58.03-1.17L58.03-1.17Q58.03-0.44 58.81-0.44L58.81-0.44L58.81-0.44Q59.59-0.44 60.24-1.43L60.24-1.43L60.24-1.43Q60.88-2.42 61.16-3.56L61.16-3.56L61.57-3.43L61.57-3.43Q60.72 0.21 58.05 0.21L58.05 0.21L58.05 0.21Q56.95 0.21 56.21-0.40L56.21-0.40L56.21-0.40Q55.48-1.01 55.48-2.10L55.48-2.10L55.48-2.10Q55.48-3.20 56.42-8.33L56.42-8.33L55.29-8.33L55.34-8.74" fill="#51cacc" stroke="none" stroke-width="none" transform="translate(-70.3166732788086,6.870258314344616)" style="fill: rgb(255, 112, 142); animation-play-state: running; animation-delay: 0s;"></path></g><g class="path" style="transform: scale(0.91); transform-origin: -3.31836px 2.50195px 0px; animation: 1s linear -0.22s infinite normal forwards running breath-2e122b66-e972-4902-b5b6-92bdf340ef22;"><path d="M66.10 0.21L66.10 0.21Q64.33 0.21 63.41-0.68L63.41-0.68L63.41-0.68Q62.49-1.56 62.49-2.91L62.49-2.91L62.49-2.91Q62.49-4.25 62.73-5.21L62.73-5.21L62.73-5.21Q62.97-6.16 63.53-7.05L63.53-7.05L63.53-7.05Q64.08-7.93 65.19-8.44L65.19-8.44L65.19-8.44Q66.31-8.95 67.98-8.95L67.98-8.95L67.98-8.95Q69.64-8.95 70.58-8.06L70.58-8.06L70.58-8.06Q71.51-7.18 71.51-5.63L71.51-5.63L71.51-5.63Q71.51-3.01 70.12-1.40L70.12-1.40L70.12-1.40Q68.72 0.21 66.10 0.21L66.10 0.21zM65.09-2.16L65.09-2.16L65.09-2.16Q65.09-0.32 66.16-0.32L66.16-0.32L66.16-0.32Q67.23-0.32 68.07-2.17L68.07-2.17L68.07-2.17Q68.91-4.03 68.91-6.58L68.91-6.58L68.91-6.58Q68.91-8.51 67.86-8.51L67.86-8.51L67.86-8.51Q66.81-8.51 65.95-6.75L65.95-6.75L65.95-6.75Q65.09-4.99 65.09-2.16" fill="#51cacc" stroke="none" stroke-width="none" transform="translate(-70.3166732788086,6.870258314344616)" style="fill: rgb(81, 202, 204); animation-play-state: running; animation-delay: 0s;"></path></g><g class="path" style="transform: scale(0.91); transform-origin: 18.3379px 1.04883px 0px; animation: 1s linear -0.146667s infinite normal forwards running breath-2e122b66-e972-4902-b5b6-92bdf340ef22;"><path d="M87.03 2.65L87.03 2.65L87.03 2.65Q85.56 3.52 83.86 3.52L83.86 3.52L83.86 3.52Q82.16 3.52 81.26 2.98L81.26 2.98L81.26 2.98Q80.36 2.44 80.36 1.62L80.36 1.62L80.36 1.62Q80.36 0.80 81.02 0.31L81.02 0.31L81.02 0.31Q81.67-0.18 82.98-0.18L82.98-0.18L82.98-0.18Q84.78-0.18 86.20 1.15L86.20 1.15L86.20 1.15Q86.48 0.30 86.66-0.74L86.66-0.74L86.80-1.59L85.84-1.59L85.84-2.09L86.89-2.09L88.64-12.07L88.64-12.07Q88.76-12.93 88.96-13.46L88.96-13.46L88.96-13.46Q84.20-13.09 81.62-11.44L81.62-11.44L81.62-11.44Q79.03-9.80 79.03-7.13L79.03-7.13L79.03-7.13Q79.03-5.93 79.86-5.11L79.86-5.11L79.86-5.11Q80.43-4.55 81.37-4.27L81.37-4.27L81.37-4.27Q82.32-3.98 82.93-3.94L82.93-3.94L82.93-3.94Q83.54-3.91 83.58-3.96L83.58-3.96L83.58-3.47L83.58-3.47Q80.87-3.47 79.56-4.76L79.56-4.76L79.56-4.76Q78.59-5.66 78.59-7.13L78.59-7.13L78.59-7.13Q78.59-10.05 81.33-11.81L81.33-11.81L81.33-11.81Q84.06-13.57 89.15-13.91L89.15-13.91L89.15-13.91Q90.23-16.33 93.17-16.33L93.17-16.33L93.17-15.73L93.17-15.73Q92.60-15.66 92.38-15.27L92.38-15.27L92.38-15.27Q92.16-14.88 92-14.01L92-14.01L92-14.01Q93.91-13.98 95.28-13.54L95.28-13.54L95.28-13.54Q96.65-13.09 97.36-12.35L97.36-12.35L97.36-12.35Q98.72-10.95 98.72-9.06L98.72-9.06L98.72-9.06Q98.72-7.61 98.18-6.43L98.18-6.43L98.18-6.43Q97.64-5.24 96.81-4.49L96.81-4.49L96.81-4.49Q95.98-3.73 94.78-3.17L94.78-3.17L94.78-3.17Q92.81-2.23 90.02-1.84L90.02-1.84L90.02-1.79L90.02-1.79Q89.54 0.90 87.45 2.37L87.45 2.37L87.45 2.37Q88.39 3.22 89.52 3.70L89.52 3.70L89.52 3.70Q90.64 4.19 92.41 4.19L92.41 4.19L92.41 4.69L92.41 4.69Q90.50 4.69 89.27 4.15L89.27 4.15L89.27 4.15Q88.04 3.61 87.03 2.65zM98.12-9.06L98.12-9.06L98.12-9.06Q98.12-11.09 96.59-12.30L96.59-12.30L96.59-12.30Q95.06-13.52 91.95-13.57L91.95-13.57L91.95-13.57Q91.10-7.31 90.14-2.37L90.14-2.37L90.14-2.37Q98.12-3.52 98.12-9.06zM86.02 1.66L86.02 1.66Q85.28 0.97 84.62 0.61L84.62 0.61L84.62 0.61Q83.95 0.25 83.00 0.25L83.00 0.25L83.00 0.25Q82.04 0.25 81.48 0.61L81.48 0.61L81.48 0.61Q80.91 0.97 80.91 1.60L80.91 1.60L80.91 1.60Q80.91 2.23 81.65 2.66L81.65 2.66L81.65 2.66Q82.39 3.08 83.42 3.08L83.42 3.08L83.42 3.08Q84.46 3.08 85.07 2.78L85.07 2.78L85.07 2.78Q85.67 2.48 86.02 1.66L86.02 1.66" fill="#51cacc" stroke="none" stroke-width="none" transform="translate(-70.3166732788086,6.870258314344616)" style="fill: rgb(157, 248, 113); animation-play-state: running; animation-delay: 0s;"></path></g><g class="path" style="transform: scale(0.91); transform-origin: 40.3477px 0.628906px 0px; animation: 1s linear -0.0733333s infinite normal forwards running breath-2e122b66-e972-4902-b5b6-92bdf340ef22;"><path d="M118.40-1.20L118.40-1.20Q117.32 0.07 115.49 0.83L115.49 0.83L115.49 0.83Q113.67 1.59 111.75 1.59L111.75 1.59L111.75 1.59Q109.83 1.59 108.49 1.22L108.49 1.22L108.49 1.22Q106.90 2.35 105.11 2.35L105.11 2.35L105.11 1.91L105.11 1.91Q106.01 1.89 106.41 1.67L106.41 1.67L106.41 1.67Q106.81 1.45 107.11 0.74L107.11 0.74L107.11 0.74Q105.92 0.21 105.02-0.61L105.02-0.61L105.02-0.61Q104.12-1.43 103.81-1.93L103.81-1.93L103.81-1.93Q103.50-2.44 103.50-2.53L103.50-2.53L103.91-2.69L103.91-2.69Q103.91-2.60 104.20-2.14L104.20-2.14L104.20-2.14Q104.49-1.68 105.33-0.91L105.33-0.91L105.33-0.91Q106.17-0.14 107.27 0.34L107.27 0.34L107.27 0.34Q107.59-0.46 107.80-1.66L107.80-1.66L109.85-13.48L109.85-13.48Q107.46-13.29 105.62-12.54L105.62-12.54L105.62-12.54Q107.18-10.88 107.18-8.58L107.18-8.58L107.18-8.58Q107.18-6.46 106.04-5.19L106.04-5.19L106.04-5.19Q104.90-3.91 103.52-3.91L103.52-3.91L103.52-3.91Q102.14-3.91 101.41-4.75L101.41-4.75L101.41-4.75Q100.67-5.59 100.67-6.74L100.67-6.74L100.67-6.74Q100.67-8.53 101.68-10.11L101.68-10.11L101.68-10.11Q102.69-11.68 104.81-12.70L104.81-12.70L104.81-12.70Q103.29-13.98 100.81-14.40L100.81-14.40L100.90-14.83L100.90-14.83Q103.68-14.33 105.25-12.88L105.25-12.88L105.25-12.88Q108.03-14.01 112.04-14.01L112.04-14.01L112.04-14.01Q116.06-14.01 118.36-12.18L118.36-12.18L118.36-12.18Q120.66-10.35 120.66-7.08L120.66-7.08L120.66-7.08Q120.66-3.75 118.40-1.20L118.40-1.20zM111.37 1.17L111.37 1.17L111.37 1.17Q113.55 1.17 115.30 0.45L115.30 0.45L115.30 0.45Q117.05-0.28 118.08-1.47L118.08-1.47L118.08-1.47Q120.22-3.91 120.22-6.93L120.22-6.93L120.22-6.93Q120.22-9.96 118.24-11.66L118.24-11.66L118.24-11.66Q116.27-13.36 112.72-13.55L112.72-13.55L112.72-13.55Q111.60-5.93 110.95-2.60L110.95-2.60L110.95-2.60Q110.54-0.48 108.93 0.90L108.93 0.90L108.93 0.90Q110.15 1.17 111.37 1.17zM101.11-6.74L101.11-6.74L101.11-6.74Q101.11-5.80 101.72-5.07L101.72-5.07L101.72-5.07Q102.33-4.35 103.53-4.35L103.53-4.35L103.53-4.35Q104.74-4.35 105.66-5.41L105.66-5.41L105.66-5.41Q106.58-6.46 106.72-8.10L106.72-8.10L106.72-8.10Q106.74-8.39 106.74-8.69L106.74-8.69L106.74-8.69Q106.74-10.76 105.16-12.35L105.16-12.35L105.16-12.35Q103.09-11.41 102.10-9.92L102.10-9.92L102.10-9.92Q101.11-8.44 101.11-6.74" fill="#51cacc" stroke="none" stroke-width="none" transform="translate(-70.3166732788086,6.870258314344616)" style="fill: rgb(224, 255, 119); animation-play-state: running; animation-delay: 0s;"></path></g><g class="path" style="transform: scale(0.91); transform-origin: 61.7129px 1.64453px 0px; animation: 1s linear 0s infinite normal forwards running breath-2e122b66-e972-4902-b5b6-92bdf340ef22;"><path d="M122.94-7.15L122.94-7.15L122.94-7.15Q122.94-4.97 125.26-4.23L125.26-4.23L125.26-4.23Q126.18-3.96 126.79-3.92L126.79-3.92L126.79-3.92Q127.40-3.89 127.44-3.93L127.44-3.93L127.47-3.45L127.33-3.45L127.33-3.45Q124.75-3.45 123.42-4.74L123.42-4.74L123.42-4.74Q122.45-5.63 122.45-7.15L122.45-7.15L122.45-7.15Q122.45-10.42 125.91-12.21L125.91-12.21L125.91-12.21Q129.38-14.01 135.65-14.01L135.65-14.01L135.65-14.01Q138.94-14.01 140.28-13.29L140.28-13.29L140.28-13.29Q141.61-12.58 141.61-11.25L141.61-11.25L141.61-11.25Q141.61-10.19 140.94-9.10L140.94-9.10L140.94-9.10Q140.28-8.00 139.33-6.83L139.33-6.83L139.33-6.83Q138.39-5.66 138.05-4.85L138.05-4.85L139.26-4.85L139.22-4.44L137.88-4.44L137.88-4.44Q137.70-3.84 137.70-3.36L137.70-3.36L137.22-3.36L137.22-3.36Q137.22-3.91 137.36-4.44L137.36-4.44L134.44-4.44L133.95-1.75L133.95-1.75Q133.47 0.74 131.63 2.15L131.63 2.15L131.63 2.15Q129.79 3.56 127.67 3.56L127.67 3.56L127.67 3.10L127.67 3.10Q129.24 3.08 129.69 2.44L129.69 2.44L129.69 2.44Q130.13 1.79 130.57-0.71L130.57-0.71L131.19-4.44L130.02-4.44L130.06-4.85L131.26-4.85L132.76-13.43L132.76-13.43Q128.04-13.04 125.49-11.42L125.49-11.42L125.49-11.42Q122.94-9.80 122.94-7.15zM141.06-11.25L141.06-11.25L141.06-11.25Q141.06-13.55 135.84-13.55L135.84-13.55L135.84-13.55Q134.90-7.04 134.50-4.85L134.50-4.85L137.52-4.85L137.52-4.85Q137.86-5.73 138.78-6.91L138.78-6.91L138.78-6.91Q139.70-8.10 140.38-9.18L140.38-9.18L140.38-9.18Q141.06-10.26 141.06-11.25" fill="#51cacc" stroke="none" stroke-width="none" transform="translate(-70.3166732788086,6.870258314344616)" style="fill: rgb(222, 157, 214); animation-play-state: running; animation-delay: 0s;"></path></g></g>
</g>
</g>
<style id="breath-2e122b66-e972-4902-b5b6-92bdf340ef22" data-anikit="">@keyframes breath-2e122b66-e972-4902-b5b6-92bdf340ef22
{
  0% {
    animation-timing-function: cubic-bezier(0.9647,0.2413,-0.0705,0.7911);
    transform: scale(0.9099999999999999);
  }
  51% {
    animation-timing-function: cubic-bezier(0.9226,0.2631,-0.0308,0.7628);
    transform: scale(1.02994);
  }
  100% {
    transform: scale(0.9099999999999999);
  }
}</style></svg>