<?xml version="1.0" encoding="utf-8"?>
<svg xmlns="http://www.w3.org/2000/svg" style="margin: auto; display: block; shape-rendering: auto; background: rgba(0, 0, 0, 0) none repeat scroll 0% 0%;" width="268" height="41" preserveAspectRatio="xMidYMid">
<style type="text/css">
  text {
    text-anchor: middle; font-size: 12px; opacity: 0;
  }
</style>
<g style="transform-origin: 134px 20.5px 0px; transform: scale(0.571429);">
<g transform="translate(134,20.5)">
  <g transform="translate(0,0)"><g class="path" style="opacity: 1; transform-origin: -147.16px -0.427734px 0px; animation: 1s linear -0.63s infinite normal forwards running blink-e77b8166-3532-4cdd-ad5f-3db6d78bbf74;"><path d="M15.08-11.10L15.08-11.10L13.33-10.37L13.33-10.37Q13.13-11.03 12.78-11.59L12.78-11.59L12.78-11.59Q12.44-12.14 11.96-12.54L11.96-12.54L11.96-12.54Q11.48-12.93 10.88-13.15L10.88-13.15L10.88-13.15Q10.27-13.37 9.56-13.37L9.56-13.37L9.56-13.37Q8.79-13.37 8.15-13.12L8.15-13.12L8.15-13.12Q7.51-12.87 7.00-12.43L7.00-12.43L7.00-12.43Q6.49-11.99 6.11-11.40L6.11-11.40L6.11-11.40Q5.73-10.82 5.48-10.16L5.48-10.16L5.48-10.16Q5.22-9.50 5.10-8.79L5.10-8.79L5.10-8.79Q4.97-8.08 4.97-7.40L4.97-7.40L4.97-7.40Q4.97-6.33 5.22-5.26L5.22-5.26L5.22-5.26Q5.48-4.19 6.02-3.34L6.02-3.34L6.02-3.34Q6.57-2.49 7.44-1.96L7.44-1.96L7.44-1.96Q8.32-1.44 9.56-1.44L9.56-1.44L9.56-1.44Q10.21-1.44 10.80-1.66L10.80-1.66L10.80-1.66Q11.38-1.88 11.86-2.26L11.86-2.26L11.86-2.26Q12.34-2.65 12.69-3.17L12.69-3.17L12.69-3.17Q13.05-3.69 13.27-4.30L13.27-4.30L15.04-3.59L15.04-3.59Q14.65-2.61 13.98-1.88L13.98-1.88L13.98-1.88Q13.30-1.15 12.43-0.67L12.43-0.67L12.43-0.67Q11.57-0.18 10.58 0.06L10.58 0.06L10.58 0.06Q9.59 0.30 8.58 0.30L8.58 0.30L8.58 0.30Q7.50 0.30 6.50 0.03L6.50 0.03L6.50 0.03Q5.50-0.24 4.63-0.73L4.63-0.73L4.63-0.73Q3.77-1.22 3.07-1.92L3.07-1.92L3.07-1.92Q2.37-2.61 1.87-3.47L1.87-3.47L1.87-3.47Q1.37-4.32 1.10-5.32L1.10-5.32L1.10-5.32Q0.83-6.32 0.83-7.40L0.83-7.40L0.83-7.40Q0.83-8.49 1.10-9.49L1.10-9.49L1.10-9.49Q1.37-10.49 1.87-11.35L1.87-11.35L1.87-11.35Q2.37-12.20 3.07-12.90L3.07-12.90L3.07-12.90Q3.77-13.60 4.63-14.09L4.63-14.09L4.63-14.09Q5.50-14.58 6.50-14.85L6.50-14.85L6.50-14.85Q7.50-15.11 8.58-15.11L8.58-15.11L8.58-15.11Q9.63-15.11 10.63-14.87L10.63-14.87L10.63-14.87Q11.63-14.62 12.49-14.12L12.49-14.12L12.49-14.12Q13.35-13.63 14.02-12.87L14.02-12.87L14.02-12.87Q14.69-12.12 15.08-11.10" fill="#6f8bb2" stroke="none" stroke-width="none" transform="translate(-155.11666870117188,6.977897172407681)" style="fill: rgb(111, 139, 178);"></path></g><g class="path" style="opacity: 1; transform-origin: -131.977px 1.0332px 0px; animation: 1s linear -0.6s infinite normal forwards running blink-e77b8166-3532-4cdd-ad5f-3db6d78bbf74;"><path d="M29.75-5.95L29.75-5.95L29.75-5.95Q29.75-5.02 29.50-4.21L29.50-4.21L29.50-4.21Q29.25-3.40 28.82-2.72L28.82-2.72L28.82-2.72Q28.38-2.03 27.77-1.48L27.77-1.48L27.77-1.48Q27.15-0.93 26.42-0.55L26.42-0.55L26.42-0.55Q25.69-0.17 24.85 0.03L24.85 0.03L24.85 0.03Q24.01 0.24 23.13 0.24L23.13 0.24L23.13 0.24Q22.25 0.24 21.42 0.03L21.42 0.03L21.42 0.03Q20.59-0.17 19.86-0.55L19.86-0.55L19.86-0.55Q19.12-0.93 18.51-1.48L18.51-1.48L18.51-1.48Q17.89-2.03 17.46-2.72L17.46-2.72L17.46-2.72Q17.02-3.40 16.78-4.22L16.78-4.22L16.78-4.22Q16.53-5.03 16.53-5.95L16.53-5.95L16.53-5.95Q16.53-6.86 16.78-7.68L16.78-7.68L16.78-7.68Q17.02-8.49 17.46-9.18L17.46-9.18L17.46-9.18Q17.89-9.86 18.51-10.41L18.51-10.41L18.51-10.41Q19.12-10.96 19.86-11.34L19.86-11.34L19.86-11.34Q20.59-11.72 21.42-11.93L21.42-11.93L21.42-11.93Q22.25-12.13 23.13-12.13L23.13-12.13L23.13-12.13Q24.01-12.13 24.85-11.93L24.85-11.93L24.85-11.93Q25.69-11.72 26.42-11.34L26.42-11.34L26.42-11.34Q27.15-10.96 27.77-10.41L27.77-10.41L27.77-10.41Q28.38-9.86 28.82-9.18L28.82-9.18L28.82-9.18Q29.25-8.49 29.50-7.68L29.50-7.68L29.50-7.68Q29.75-6.86 29.75-5.95zM26.22-5.95L26.22-5.95L26.22-5.95Q26.22-6.44 26.16-6.99L26.16-6.99L26.16-6.99Q26.11-7.54 25.97-8.06L25.97-8.06L25.97-8.06Q25.84-8.59 25.61-9.08L25.61-9.08L25.61-9.08Q25.38-9.57 25.04-9.93L25.04-9.93L25.04-9.93Q24.70-10.29 24.23-10.52L24.23-10.52L24.23-10.52Q23.76-10.74 23.13-10.74L23.13-10.74L23.13-10.74Q22.54-10.74 22.08-10.51L22.08-10.51L22.08-10.51Q21.62-10.28 21.27-9.91L21.27-9.91L21.27-9.91Q20.93-9.54 20.70-9.04L20.70-9.04L20.70-9.04Q20.47-8.55 20.32-8.02L20.32-8.02L20.32-8.02Q20.18-7.50 20.12-6.96L20.12-6.96L20.12-6.96Q20.06-6.42 20.06-5.95L20.06-5.95L20.06-5.95Q20.06-5.48 20.12-4.94L20.12-4.94L20.12-4.94Q20.18-4.40 20.32-3.87L20.32-3.87L20.32-3.87Q20.47-3.33 20.70-2.85L20.70-2.85L20.70-2.85Q20.93-2.36 21.27-1.98L21.27-1.98L21.27-1.98Q21.62-1.61 22.08-1.38L22.08-1.38L22.08-1.38Q22.54-1.16 23.13-1.16L23.13-1.16L23.13-1.16Q23.75-1.16 24.22-1.38L24.22-1.38L24.22-1.38Q24.69-1.60 25.03-1.97L25.03-1.97L25.03-1.97Q25.38-2.34 25.60-2.82L25.60-2.82L25.60-2.82Q25.83-3.30 25.97-3.83L25.97-3.83L25.97-3.83Q26.11-4.37 26.16-4.91L26.16-4.91L26.16-4.91Q26.22-5.46 26.22-5.95" fill="#6f8bb2" stroke="none" stroke-width="none" transform="translate(-155.11666870117188,6.977897172407681)" style="fill: rgb(111, 139, 178);"></path></g><g class="path" style="opacity: 1; transform-origin: -117.133px 2.17188px 0px; animation: 1s linear -0.57s infinite normal forwards running blink-e77b8166-3532-4cdd-ad5f-3db6d78bbf74;"><path d="M44.04-6.79L44.04-6.79L44.04-6.79Q44.04-5.59 43.75-4.29L43.75-4.29L43.75-4.29Q43.46-2.98 42.93-1.73L42.93-1.73L42.93-1.73Q42.41-0.48 41.68 0.62L41.68 0.62L41.68 0.62Q40.95 1.72 40.08 2.52L40.08 2.52L38.78 1.81L38.78 1.81Q39.06 1.30 39.30 0.67L39.30 0.67L39.30 0.67Q39.55 0.03 39.75-0.68L39.75-0.68L39.75-0.68Q39.95-1.39 40.11-2.15L40.11-2.15L40.11-2.15Q40.27-2.91 40.37-3.66L40.37-3.66L40.37-3.66Q40.48-4.40 40.54-5.10L40.54-5.10L40.54-5.10Q40.60-5.80 40.60-6.41L40.60-6.41L40.60-6.41Q40.60-6.81 40.56-7.26L40.56-7.26L40.56-7.26Q40.53-7.72 40.44-8.18L40.44-8.18L40.44-8.18Q40.34-8.63 40.17-9.05L40.17-9.05L40.17-9.05Q40.01-9.47 39.74-9.79L39.74-9.79L39.74-9.79Q39.47-10.11 39.08-10.31L39.08-10.31L39.08-10.31Q38.70-10.50 38.18-10.50L38.18-10.50L38.18-10.50Q37.66-10.50 37.26-10.27L37.26-10.27L37.26-10.27Q36.86-10.04 36.56-9.66L36.56-9.66L36.56-9.66Q36.25-9.29 36.03-8.81L36.03-8.81L36.03-8.81Q35.81-8.33 35.67-7.82L35.67-7.82L35.67-7.82Q35.53-7.31 35.47-6.82L35.47-6.82L35.47-6.82Q35.41-6.33 35.41-5.94L35.41-5.94L35.41 0L31.93 0L31.93-11.84L33.26-11.84L34.85-9.08L34.85-9.08Q35.14-9.77 35.57-10.34L35.57-10.34L35.57-10.34Q36.00-10.90 36.54-11.30L36.54-11.30L36.54-11.30Q37.09-11.70 37.75-11.92L37.75-11.92L37.75-11.92Q38.41-12.13 39.18-12.13L39.18-12.13L39.18-12.13Q40.41-12.13 41.32-11.73L41.32-11.73L41.32-11.73Q42.24-11.33 42.84-10.62L42.84-10.62L42.84-10.62Q43.45-9.91 43.74-8.93L43.74-8.93L43.74-8.93Q44.04-7.95 44.04-6.79" fill="#6f8bb2" stroke="none" stroke-width="none" transform="translate(-155.11666870117188,6.977897172407681)" style="fill: rgb(111, 139, 178);"></path></g><g class="path" style="opacity: 1; transform-origin: -104.193px 1.05664px 0px; animation: 1s linear -0.54s infinite normal forwards running blink-e77b8166-3532-4cdd-ad5f-3db6d78bbf74;"><path d="M56.97-11.84L52.31 0L49.19 0L44.88-11.84L48.35-11.84L51.51-2.41L54.57-11.84L56.97-11.84" fill="#6f8bb2" stroke="none" stroke-width="none" transform="translate(-155.11666870117188,6.977897172407681)" style="fill: rgb(111, 139, 178);"></path></g><g class="path" style="opacity: 1; transform-origin: -91.5664px 1.0332px 0px; animation: 1s linear -0.51s infinite normal forwards running blink-e77b8166-3532-4cdd-ad5f-3db6d78bbf74;"><path d="M61.05-5.62L61.05-5.62L61.05-5.62Q61.69-5.48 62.32-5.39L62.32-5.39L62.32-5.39Q62.96-5.31 63.60-5.31L63.60-5.31L63.60-5.31Q64.28-5.31 64.86-5.44L64.86-5.44L64.86-5.44Q65.44-5.57 65.87-5.87L65.87-5.87L65.87-5.87Q66.29-6.17 66.54-6.68L66.54-6.68L66.54-6.68Q66.78-7.18 66.78-7.93L66.78-7.93L66.78-7.93Q66.78-8.53 66.62-9.03L66.62-9.03L66.62-9.03Q66.46-9.54 66.13-9.90L66.13-9.90L66.13-9.90Q65.81-10.25 65.34-10.45L65.34-10.45L65.34-10.45Q64.87-10.65 64.24-10.65L64.24-10.65L64.24-10.65Q63.66-10.65 63.19-10.44L63.19-10.44L63.19-10.44Q62.72-10.22 62.37-9.86L62.37-9.86L62.37-9.86Q62.02-9.50 61.76-9.01L61.76-9.01L61.76-9.01Q61.51-8.53 61.35-8.01L61.35-8.01L61.35-8.01Q61.19-7.49 61.11-6.95L61.11-6.95L61.11-6.95Q61.04-6.42 61.04-5.95L61.04-5.95L61.04-5.95Q61.04-5.87 61.04-5.78L61.04-5.78L61.04-5.78Q61.04-5.70 61.05-5.62zM69.59-7.96L69.59-7.96L69.59-7.96Q69.59-7.23 69.36-6.66L69.36-6.66L69.36-6.66Q69.12-6.09 68.72-5.66L68.72-5.66L68.72-5.66Q68.31-5.23 67.78-4.93L67.78-4.93L67.78-4.93Q67.25-4.63 66.64-4.45L66.64-4.45L66.64-4.45Q66.04-4.26 65.39-4.17L65.39-4.17L65.39-4.17Q64.75-4.09 64.15-4.09L64.15-4.09L64.15-4.09Q63.38-4.09 62.63-4.20L62.63-4.20L62.63-4.20Q61.88-4.31 61.15-4.54L61.15-4.54L61.15-4.54Q61.27-3.87 61.51-3.26L61.51-3.26L61.51-3.26Q61.76-2.65 62.17-2.19L62.17-2.19L62.17-2.19Q62.58-1.73 63.18-1.47L63.18-1.47L63.18-1.47Q63.78-1.20 64.60-1.20L64.60-1.20L64.60-1.20Q65.14-1.20 65.64-1.36L65.64-1.36L65.64-1.36Q66.13-1.53 66.54-1.83L66.54-1.83L66.54-1.83Q66.95-2.12 67.26-2.53L67.26-2.53L67.26-2.53Q67.57-2.94 67.77-3.45L67.77-3.45L69.27-2.89L69.27-2.89Q68.93-2.08 68.34-1.49L68.34-1.49L68.34-1.49Q67.75-0.90 67.00-0.52L67.00-0.52L67.00-0.52Q66.26-0.13 65.43 0.05L65.43 0.05L65.43 0.05Q64.59 0.24 63.77 0.24L63.77 0.24L63.77 0.24Q62.42 0.24 61.27-0.22L61.27-0.22L61.27-0.22Q60.12-0.68 59.29-1.50L59.29-1.50L59.29-1.50Q58.46-2.32 57.99-3.46L57.99-3.46L57.99-3.46Q57.51-4.59 57.51-5.95L57.51-5.95L57.51-5.95Q57.51-7.30 57.99-8.44L57.99-8.44L57.99-8.44Q58.46-9.58 59.29-10.40L59.29-10.40L59.29-10.40Q60.12-11.22 61.27-11.67L61.27-11.67L61.27-11.67Q62.42-12.13 63.77-12.13L63.77-12.13L63.77-12.13Q64.43-12.13 65.11-12.04L65.11-12.04L65.11-12.04Q65.80-11.95 66.45-11.75L66.45-11.75L66.45-11.75Q67.09-11.55 67.67-11.23L67.67-11.23L67.67-11.23Q68.24-10.91 68.67-10.44L68.67-10.44L68.67-10.44Q69.09-9.98 69.34-9.36L69.34-9.36L69.34-9.36Q69.59-8.75 69.59-7.96" fill="#6f8bb2" stroke="none" stroke-width="none" transform="translate(-155.11666870117188,6.977897172407681)" style="fill: rgb(111, 139, 178);"></path></g><g class="path" style="opacity: 1; transform-origin: -78.3203px 0.912109px 0px; animation: 1s linear -0.48s infinite normal forwards running blink-e77b8166-3532-4cdd-ad5f-3db6d78bbf74;"><path d="M81.83-10.80L81.83-10.80L79.88-7.57L79.88-7.57Q79.75-7.98 79.56-8.49L79.56-8.49L79.56-8.49Q79.37-9.00 79.08-9.45L79.08-9.45L79.08-9.45Q78.79-9.90 78.39-10.20L78.39-10.20L78.39-10.20Q77.99-10.50 77.47-10.50L77.47-10.50L77.47-10.50Q76.99-10.50 76.63-10.25L76.63-10.25L76.63-10.25Q76.28-10.01 76.03-9.61L76.03-9.61L76.03-9.61Q75.79-9.22 75.63-8.72L75.63-8.72L75.63-8.72Q75.47-8.22 75.38-7.72L75.38-7.72L75.38-7.72Q75.29-7.21 75.26-6.74L75.26-6.74L75.26-6.74Q75.23-6.28 75.23-5.94L75.23-5.94L75.23 0L71.76 0L71.76-11.84L73.09-11.84L74.49-9.08L74.49-9.08Q74.78-9.75 75.15-10.31L75.15-10.31L75.15-10.31Q75.52-10.87 76.00-11.27L76.00-11.27L76.00-11.27Q76.48-11.68 77.09-11.90L77.09-11.90L77.09-11.90Q77.70-12.13 78.47-12.13L78.47-12.13L78.47-12.13Q78.87-12.13 79.37-12.06L79.37-12.06L79.37-12.06Q79.86-12.00 80.33-11.84L80.33-11.84L80.33-11.84Q80.80-11.68 81.20-11.42L81.20-11.42L81.20-11.42Q81.60-11.17 81.83-10.80" fill="#6f8bb2" stroke="none" stroke-width="none" transform="translate(-155.11666870117188,6.977897172407681)" style="fill: rgb(111, 139, 178);"></path></g><g class="path" style="opacity: 1; transform-origin: -68.4063px -1.12305px 0px; animation: 1s linear -0.45s infinite normal forwards running blink-e77b8166-3532-4cdd-ad5f-3db6d78bbf74;"><path d="M87.73-10.47L87.73 0L84.26 0L84.26-10.47L82.10-10.47L82.10-11.84L84.26-11.84L84.26-16.20L87.73-16.20L87.73-11.84L91.32-11.84L91.32-10.47L87.73-10.47" fill="#6f8bb2" stroke="none" stroke-width="none" transform="translate(-155.11666870117188,6.977897172407681)" style="fill: rgb(111, 139, 178);"></path></g><g class="path" style="opacity: 1; transform-origin: -51.2227px -0.408203px 0px; animation: 1s linear -0.42s infinite normal forwards running blink-e77b8166-3532-4cdd-ad5f-3db6d78bbf74;"><path d="M105.93-12.88L105.93 0L101.86 0L101.86-12.88L97.84-12.88L97.84-14.77L109.95-14.77L109.95-12.88L105.93-12.88" fill="#6f8bb2" stroke="none" stroke-width="none" transform="translate(-155.11666870117188,6.977897172407681)" style="fill: rgb(111, 139, 178);"></path></g><g class="path" style="opacity: 1; transform-origin: -39.166px 1.0332px 0px; animation: 1s linear -0.39s infinite normal forwards running blink-e77b8166-3532-4cdd-ad5f-3db6d78bbf74;"><path d="M113.45-5.62L113.45-5.62L113.45-5.62Q114.08-5.48 114.72-5.39L114.72-5.39L114.72-5.39Q115.36-5.31 116.00-5.31L116.00-5.31L116.00-5.31Q116.68-5.31 117.26-5.44L117.26-5.44L117.26-5.44Q117.84-5.57 118.26-5.87L118.26-5.87L118.26-5.87Q118.69-6.17 118.94-6.68L118.94-6.68L118.94-6.68Q119.18-7.18 119.18-7.93L119.18-7.93L119.18-7.93Q119.18-8.53 119.02-9.03L119.02-9.03L119.02-9.03Q118.85-9.54 118.53-9.90L118.53-9.90L118.53-9.90Q118.21-10.25 117.74-10.45L117.74-10.45L117.74-10.45Q117.26-10.65 116.64-10.65L116.64-10.65L116.64-10.65Q116.05-10.65 115.59-10.44L115.59-10.44L115.59-10.44Q115.12-10.22 114.77-9.86L114.77-9.86L114.77-9.86Q114.41-9.50 114.16-9.01L114.16-9.01L114.16-9.01Q113.91-8.53 113.75-8.01L113.75-8.01L113.75-8.01Q113.58-7.49 113.51-6.95L113.51-6.95L113.51-6.95Q113.44-6.42 113.44-5.95L113.44-5.95L113.44-5.95Q113.44-5.87 113.44-5.78L113.44-5.78L113.44-5.78Q113.44-5.70 113.45-5.62zM121.99-7.96L121.99-7.96L121.99-7.96Q121.99-7.23 121.75-6.66L121.75-6.66L121.75-6.66Q121.52-6.09 121.11-5.66L121.11-5.66L121.11-5.66Q120.71-5.23 120.18-4.93L120.18-4.93L120.18-4.93Q119.64-4.63 119.04-4.45L119.04-4.45L119.04-4.45Q118.43-4.26 117.79-4.17L117.79-4.17L117.79-4.17Q117.15-4.09 116.55-4.09L116.55-4.09L116.55-4.09Q115.78-4.09 115.03-4.20L115.03-4.20L115.03-4.20Q114.28-4.31 113.55-4.54L113.55-4.54L113.55-4.54Q113.66-3.87 113.91-3.26L113.91-3.26L113.91-3.26Q114.16-2.65 114.57-2.19L114.57-2.19L114.57-2.19Q114.98-1.73 115.58-1.47L115.58-1.47L115.58-1.47Q116.18-1.20 117.00-1.20L117.00-1.20L117.00-1.20Q117.54-1.20 118.03-1.36L118.03-1.36L118.03-1.36Q118.52-1.53 118.94-1.83L118.94-1.83L118.94-1.83Q119.35-2.12 119.66-2.53L119.66-2.53L119.66-2.53Q119.97-2.94 120.17-3.45L120.17-3.45L121.66-2.89L121.66-2.89Q121.32-2.08 120.73-1.49L120.73-1.49L120.73-1.49Q120.15-0.90 119.40-0.52L119.40-0.52L119.40-0.52Q118.66-0.13 117.82 0.05L117.82 0.05L117.82 0.05Q116.99 0.24 116.17 0.24L116.17 0.24L116.17 0.24Q114.81 0.24 113.66-0.22L113.66-0.22L113.66-0.22Q112.52-0.68 111.69-1.50L111.69-1.50L111.69-1.50Q110.85-2.32 110.38-3.46L110.38-3.46L110.38-3.46Q109.91-4.59 109.91-5.95L109.91-5.95L109.91-5.95Q109.91-7.30 110.38-8.44L110.38-8.44L110.38-8.44Q110.85-9.58 111.69-10.40L111.69-10.40L111.69-10.40Q112.52-11.22 113.66-11.67L113.66-11.67L113.66-11.67Q114.81-12.13 116.17-12.13L116.17-12.13L116.17-12.13Q116.82-12.13 117.51-12.04L117.51-12.04L117.51-12.04Q118.20-11.95 118.84-11.75L118.84-11.75L118.84-11.75Q119.49-11.55 120.06-11.23L120.06-11.23L120.06-11.23Q120.64-10.91 121.06-10.44L121.06-10.44L121.06-10.44Q121.49-9.98 121.74-9.36L121.74-9.36L121.74-9.36Q121.99-8.75 121.99-7.96" fill="#6f8bb2" stroke="none" stroke-width="none" transform="translate(-155.11666870117188,6.977897172407681)" style="fill: rgb(111, 139, 178);"></path></g><g class="path" style="opacity: 1; transform-origin: -26.752px 1.05664px 0px; animation: 1s linear -0.36s infinite normal forwards running blink-e77b8166-3532-4cdd-ad5f-3db6d78bbf74;"><path d="M129.68-6.53L134.23 0L130.77 0L127.87-4.15L124.90 0L122.50 0L126.96-5.46L122.50-11.84L125.97-11.84L128.78-7.82L131.83-11.84L134.23-11.84L129.68-6.53" fill="#6f8bb2" stroke="none" stroke-width="none" transform="translate(-155.11666870117188,6.977897172407681)" style="fill: rgb(111, 139, 178);"></path></g><g class="path" style="opacity: 1; transform-origin: -15.8477px -1.12305px 0px; animation: 1s linear -0.33s infinite normal forwards running blink-e77b8166-3532-4cdd-ad5f-3db6d78bbf74;"><path d="M140.29-10.47L140.29 0L136.82 0L136.82-10.47L134.66-10.47L134.66-11.84L136.82-11.84L136.82-16.20L140.29-16.20L140.29-11.84L143.88-11.84L143.88-10.47L140.29-10.47" fill="#6f8bb2" stroke="none" stroke-width="none" transform="translate(-155.11666870117188,6.977897172407681)" style="fill: rgb(111, 139, 178);"></path></g><g class="path" style="opacity: 1; transform-origin: -0.236328px -1.12305px 0px; animation: 1s linear -0.3s infinite normal forwards running blink-e77b8166-3532-4cdd-ad5f-3db6d78bbf74;"><path d="M155.90-10.47L155.90 0L152.42 0L152.42-10.47L150.27-10.47L150.27-11.84L152.42-11.84L152.42-16.20L155.90-16.20L155.90-11.84L159.49-11.84L159.49-10.47L155.90-10.47" fill="#6f8bb2" stroke="none" stroke-width="none" transform="translate(-155.11666870117188,6.977897172407681)" style="fill: rgb(111, 139, 178);"></path></g><g class="path" style="opacity: 1; transform-origin: 11.3633px 1.0332px 0px; animation: 1s linear -0.27s infinite normal forwards running blink-e77b8166-3532-4cdd-ad5f-3db6d78bbf74;"><path d="M173.09-5.95L173.09-5.95L173.09-5.95Q173.09-5.02 172.84-4.21L172.84-4.21L172.84-4.21Q172.59-3.40 172.16-2.72L172.16-2.72L172.16-2.72Q171.72-2.03 171.11-1.48L171.11-1.48L171.11-1.48Q170.49-0.93 169.76-0.55L169.76-0.55L169.76-0.55Q169.03-0.17 168.19 0.03L168.19 0.03L168.19 0.03Q167.35 0.24 166.47 0.24L166.47 0.24L166.47 0.24Q165.59 0.24 164.76 0.03L164.76 0.03L164.76 0.03Q163.93-0.17 163.20-0.55L163.20-0.55L163.20-0.55Q162.46-0.93 161.85-1.48L161.85-1.48L161.85-1.48Q161.23-2.03 160.80-2.72L160.80-2.72L160.80-2.72Q160.36-3.40 160.11-4.22L160.11-4.22L160.11-4.22Q159.87-5.03 159.87-5.95L159.87-5.95L159.87-5.95Q159.87-6.86 160.11-7.68L160.11-7.68L160.11-7.68Q160.36-8.49 160.80-9.18L160.80-9.18L160.80-9.18Q161.23-9.86 161.85-10.41L161.85-10.41L161.85-10.41Q162.46-10.96 163.20-11.34L163.20-11.34L163.20-11.34Q163.93-11.72 164.76-11.93L164.76-11.93L164.76-11.93Q165.59-12.13 166.47-12.13L166.47-12.13L166.47-12.13Q167.35-12.13 168.19-11.93L168.19-11.93L168.19-11.93Q169.03-11.72 169.76-11.34L169.76-11.34L169.76-11.34Q170.49-10.96 171.11-10.41L171.11-10.41L171.11-10.41Q171.72-9.86 172.16-9.18L172.16-9.18L172.16-9.18Q172.59-8.49 172.84-7.68L172.84-7.68L172.84-7.68Q173.09-6.86 173.09-5.95zM169.56-5.95L169.56-5.95L169.56-5.95Q169.56-6.44 169.50-6.99L169.50-6.99L169.50-6.99Q169.45-7.54 169.31-8.06L169.31-8.06L169.31-8.06Q169.18-8.59 168.95-9.08L168.95-9.08L168.95-9.08Q168.72-9.57 168.38-9.93L168.38-9.93L168.38-9.93Q168.04-10.29 167.57-10.52L167.57-10.52L167.57-10.52Q167.10-10.74 166.47-10.74L166.47-10.74L166.47-10.74Q165.88-10.74 165.42-10.51L165.42-10.51L165.42-10.51Q164.95-10.28 164.61-9.91L164.61-9.91L164.61-9.91Q164.27-9.54 164.04-9.04L164.04-9.04L164.04-9.04Q163.81-8.55 163.66-8.02L163.66-8.02L163.66-8.02Q163.52-7.50 163.46-6.96L163.46-6.96L163.46-6.96Q163.40-6.42 163.40-5.95L163.40-5.95L163.40-5.95Q163.40-5.48 163.46-4.94L163.46-4.94L163.46-4.94Q163.52-4.40 163.66-3.87L163.66-3.87L163.66-3.87Q163.81-3.33 164.04-2.85L164.04-2.85L164.04-2.85Q164.27-2.36 164.61-1.98L164.61-1.98L164.61-1.98Q164.95-1.61 165.42-1.38L165.42-1.38L165.42-1.38Q165.88-1.16 166.47-1.16L166.47-1.16L166.47-1.16Q167.09-1.16 167.56-1.38L167.56-1.38L167.56-1.38Q168.03-1.60 168.37-1.97L168.37-1.97L168.37-1.97Q168.72-2.34 168.94-2.82L168.94-2.82L168.94-2.82Q169.17-3.30 169.31-3.83L169.31-3.83L169.31-3.83Q169.45-4.37 169.50-4.91L169.50-4.91L169.50-4.91Q169.56-5.46 169.56-5.95" fill="#6f8bb2" stroke="none" stroke-width="none" transform="translate(-155.11666870117188,6.977897172407681)" style="fill: rgb(111, 139, 178);"></path></g><g class="path" style="opacity: 1; transform-origin: 32.9434px -0.408203px 0px; animation: 1s linear -0.24s infinite normal forwards running blink-e77b8166-3532-4cdd-ad5f-3db6d78bbf74;"><path d="M185.51-5.52L185.51 0L181.44 0L181.44-14.77L189.42-14.77L189.42-14.77Q190.46-14.77 191.40-14.49L191.40-14.49L191.40-14.49Q192.35-14.21 193.08-13.65L193.08-13.65L193.08-13.65Q193.81-13.09 194.24-12.25L194.24-12.25L194.24-12.25Q194.68-11.40 194.68-10.26L194.68-10.26L194.68-10.26Q194.68-9.55 194.48-8.92L194.48-8.92L194.48-8.92Q194.27-8.29 193.91-7.76L193.91-7.76L193.91-7.76Q193.54-7.24 193.05-6.82L193.05-6.82L193.05-6.82Q192.56-6.40 191.97-6.11L191.97-6.11L191.97-6.11Q191.39-5.82 190.74-5.67L190.74-5.67L190.74-5.67Q190.09-5.52 189.42-5.52L189.42-5.52L185.51-5.52zM190.56-10.26L190.56-10.26L190.56-10.26Q190.56-11.69 189.84-12.50L189.84-12.50L189.84-12.50Q189.11-13.32 187.66-13.32L187.66-13.32L185.51-13.32L185.51-6.91L187.66-6.91L187.66-6.91Q188.44-6.91 188.98-7.16L188.98-7.16L188.98-7.16Q189.53-7.41 189.88-7.86L189.88-7.86L189.88-7.86Q190.23-8.32 190.39-8.93L190.39-8.93L190.39-8.93Q190.56-9.54 190.56-10.26" fill="#6f8bb2" stroke="none" stroke-width="none" transform="translate(-155.11666870117188,6.977897172407681)" style="fill: rgb(111, 139, 178);"></path></g><g class="path" style="opacity: 1; transform-origin: 48.8438px -0.408203px 0px; animation: 1s linear -0.21s infinite normal forwards running blink-e77b8166-3532-4cdd-ad5f-3db6d78bbf74;"><path d="M211.12-7.40L211.12-7.40L211.12-7.40Q211.12-6.33 210.83-5.36L210.83-5.36L210.83-5.36Q210.54-4.39 210.03-3.57L210.03-3.57L210.03-3.57Q209.51-2.75 208.79-2.09L208.79-2.09L208.79-2.09Q208.07-1.43 207.21-0.96L207.21-0.96L207.21-0.96Q206.34-0.50 205.35-0.25L205.35-0.25L205.35-0.25Q204.36 0 203.31 0L203.31 0L196.80 0L196.80-14.77L203.31-14.77L203.31-14.77Q204.36-14.77 205.34-14.52L205.34-14.52L205.34-14.52Q206.33-14.27 207.20-13.82L207.20-13.82L207.20-13.82Q208.06-13.36 208.78-12.70L208.78-12.70L208.78-12.70Q209.51-12.05 210.03-11.23L210.03-11.23L210.03-11.23Q210.54-10.42 210.83-9.45L210.83-9.45L210.83-9.45Q211.12-8.48 211.12-7.40zM206.99-7.40L206.99-7.40L206.99-7.40Q206.99-8.60 206.69-9.68L206.69-9.68L206.69-9.68Q206.40-10.77 205.79-11.59L205.79-11.59L205.79-11.59Q205.17-12.41 204.22-12.89L204.22-12.89L204.22-12.89Q203.27-13.37 201.95-13.37L201.95-13.37L200.87-13.37L200.87-1.44L201.95-1.44L201.95-1.44Q203.25-1.44 204.20-1.92L204.20-1.92L204.20-1.92Q205.15-2.41 205.77-3.24L205.77-3.24L205.77-3.24Q206.39-4.06 206.69-5.14L206.69-5.14L206.69-5.14Q206.99-6.21 206.99-7.40" fill="#6f8bb2" stroke="none" stroke-width="none" transform="translate(-155.11666870117188,6.977897172407681)" style="fill: rgb(111, 139, 178);"></path></g><g class="path" style="opacity: 1; transform-origin: 63.8027px -0.408203px 0px; animation: 1s linear -0.18s infinite normal forwards running blink-e77b8166-3532-4cdd-ad5f-3db6d78bbf74;"><path d="M217.69-6.44L217.69 0L213.62 0L213.62-14.77L224.22-14.77L224.22-12.88L217.69-12.88L217.69-8.32L222.74-8.32L222.74-6.44L217.69-6.44" fill="#6f8bb2" stroke="none" stroke-width="none" transform="translate(-155.11666870117188,6.977897172407681)" style="fill: rgb(111, 139, 178);"></path></g><g class="path" style="opacity: 1; transform-origin: 81.8984px -2.04297px 0px; animation: 1s linear -0.15s infinite normal forwards running blink-e77b8166-3532-4cdd-ad5f-3db6d78bbf74;"><path d="M243.13-16.71L243.13-16.71L241.17-13.47L241.17-13.47Q241.14-13.86 241.03-14.37L241.03-14.37L241.03-14.37Q240.92-14.88 240.65-15.33L240.65-15.33L240.65-15.33Q240.39-15.78 239.94-16.09L239.94-16.09L239.94-16.09Q239.48-16.41 238.77-16.41L238.77-16.41L238.77-16.41Q238.04-16.41 237.60-16.12L237.60-16.12L237.60-16.12Q237.16-15.83 236.93-15.26L236.93-15.26L236.93-15.26Q236.69-14.68 236.61-13.83L236.61-13.83L236.61-13.83Q236.53-12.98 236.53-11.85L236.53-11.85L240.12-11.85L240.12-10.48L236.53-10.48L236.53 0L233.05 0L233.05-10.48L230.90-10.48L230.90-11.85L233.05-11.85L233.05-11.85Q233.05-13.48 233.40-14.65L233.40-14.65L233.40-14.65Q233.75-15.82 234.46-16.58L234.46-16.58L234.46-16.58Q235.16-17.33 236.23-17.68L236.23-17.68L236.23-17.68Q237.31-18.04 238.74-18.04L238.74-18.04L238.74-18.04Q239.60-18.04 240.28-17.92L240.28-17.92L240.28-17.92Q240.97-17.80 241.49-17.61L241.49-17.61L241.49-17.61Q242.02-17.42 242.42-17.19L242.42-17.19L242.42-17.19Q242.82-16.95 243.13-16.71" fill="#6f8bb2" stroke="none" stroke-width="none" transform="translate(-155.11666870117188,6.977897172407681)" style="fill: rgb(111, 139, 178);"></path></g><g class="path" style="opacity: 1; transform-origin: 92.1035px 1.0332px 0px; animation: 1s linear -0.12s infinite normal forwards running blink-e77b8166-3532-4cdd-ad5f-3db6d78bbf74;"><path d="M253.83-5.95L253.83-5.95L253.83-5.95Q253.83-5.02 253.58-4.21L253.58-4.21L253.58-4.21Q253.33-3.40 252.90-2.72L252.90-2.72L252.90-2.72Q252.46-2.03 251.85-1.48L251.85-1.48L251.85-1.48Q251.23-0.93 250.50-0.55L250.50-0.55L250.50-0.55Q249.76-0.17 248.93 0.03L248.93 0.03L248.93 0.03Q248.09 0.24 247.21 0.24L247.21 0.24L247.21 0.24Q246.33 0.24 245.50 0.03L245.50 0.03L245.50 0.03Q244.67-0.17 243.94-0.55L243.94-0.55L243.94-0.55Q243.20-0.93 242.59-1.48L242.59-1.48L242.59-1.48Q241.97-2.03 241.54-2.72L241.54-2.72L241.54-2.72Q241.10-3.40 240.85-4.22L240.85-4.22L240.85-4.22Q240.61-5.03 240.61-5.95L240.61-5.95L240.61-5.95Q240.61-6.86 240.85-7.68L240.85-7.68L240.85-7.68Q241.10-8.49 241.54-9.18L241.54-9.18L241.54-9.18Q241.97-9.86 242.59-10.41L242.59-10.41L242.59-10.41Q243.20-10.96 243.94-11.34L243.94-11.34L243.94-11.34Q244.67-11.72 245.50-11.93L245.50-11.93L245.50-11.93Q246.33-12.13 247.21-12.13L247.21-12.13L247.21-12.13Q248.09-12.13 248.93-11.93L248.93-11.93L248.93-11.93Q249.76-11.72 250.50-11.34L250.50-11.34L250.50-11.34Q251.23-10.96 251.85-10.41L251.85-10.41L251.85-10.41Q252.46-9.86 252.90-9.18L252.90-9.18L252.90-9.18Q253.33-8.49 253.58-7.68L253.58-7.68L253.58-7.68Q253.83-6.86 253.83-5.95zM250.30-5.95L250.30-5.95L250.30-5.95Q250.30-6.44 250.24-6.99L250.24-6.99L250.24-6.99Q250.19-7.54 250.05-8.06L250.05-8.06L250.05-8.06Q249.92-8.59 249.69-9.08L249.69-9.08L249.69-9.08Q249.46-9.57 249.12-9.93L249.12-9.93L249.12-9.93Q248.78-10.29 248.31-10.52L248.31-10.52L248.31-10.52Q247.84-10.74 247.21-10.74L247.21-10.74L247.21-10.74Q246.62-10.74 246.16-10.51L246.16-10.51L246.16-10.51Q245.69-10.28 245.35-9.91L245.35-9.91L245.35-9.91Q245.01-9.54 244.78-9.04L244.78-9.04L244.78-9.04Q244.55-8.55 244.40-8.02L244.40-8.02L244.40-8.02Q244.26-7.50 244.20-6.96L244.20-6.96L244.20-6.96Q244.14-6.42 244.14-5.95L244.14-5.95L244.14-5.95Q244.14-5.48 244.20-4.94L244.20-4.94L244.20-4.94Q244.26-4.40 244.40-3.87L244.40-3.87L244.40-3.87Q244.55-3.33 244.78-2.85L244.78-2.85L244.78-2.85Q245.01-2.36 245.35-1.98L245.35-1.98L245.35-1.98Q245.69-1.61 246.16-1.38L246.16-1.38L246.16-1.38Q246.62-1.16 247.21-1.16L247.21-1.16L247.21-1.16Q247.83-1.16 248.30-1.38L248.30-1.38L248.30-1.38Q248.77-1.60 249.11-1.97L249.11-1.97L249.11-1.97Q249.46-2.34 249.68-2.82L249.68-2.82L249.68-2.82Q249.91-3.30 250.05-3.83L250.05-3.83L250.05-3.83Q250.19-4.37 250.24-4.91L250.24-4.91L250.24-4.91Q250.30-5.46 250.30-5.95" fill="#6f8bb2" stroke="none" stroke-width="none" transform="translate(-155.11666870117188,6.977897172407681)" style="fill: rgb(111, 139, 178);"></path></g><g class="path" style="opacity: 1; transform-origin: 105.93px 0.912109px 0px; animation: 1s linear -0.09s infinite normal forwards running blink-e77b8166-3532-4cdd-ad5f-3db6d78bbf74;"><path d="M266.08-10.80L266.08-10.80L264.13-7.57L264.13-7.57Q264.01-7.98 263.81-8.49L263.81-8.49L263.81-8.49Q263.62-9.00 263.33-9.45L263.33-9.45L263.33-9.45Q263.04-9.90 262.64-10.20L262.64-10.20L262.64-10.20Q262.24-10.50 261.72-10.50L261.72-10.50L261.72-10.50Q261.24-10.50 260.89-10.25L260.89-10.25L260.89-10.25Q260.53-10.01 260.29-9.61L260.29-9.61L260.29-9.61Q260.04-9.22 259.88-8.72L259.88-8.72L259.88-8.72Q259.72-8.22 259.63-7.72L259.63-7.72L259.63-7.72Q259.55-7.21 259.52-6.74L259.52-6.74L259.52-6.74Q259.49-6.28 259.49-5.94L259.49-5.94L259.49 0L256.01 0L256.01-11.84L257.34-11.84L258.75-9.08L258.75-9.08Q259.03-9.75 259.40-10.31L259.40-10.31L259.40-10.31Q259.77-10.87 260.25-11.27L260.25-11.27L260.25-11.27Q260.74-11.68 261.35-11.90L261.35-11.90L261.35-11.90Q261.96-12.13 262.73-12.13L262.73-12.13L262.73-12.13Q263.13-12.13 263.62-12.06L263.62-12.06L263.62-12.06Q264.11-12.00 264.58-11.84L264.58-11.84L264.58-11.84Q265.05-11.68 265.45-11.42L265.45-11.42L265.45-11.42Q265.85-11.17 266.08-10.80" fill="#6f8bb2" stroke="none" stroke-width="none" transform="translate(-155.11666870117188,6.977897172407681)" style="fill: rgb(111, 139, 178);"></path></g><g class="path" style="opacity: 1; transform-origin: 121.568px 2.17188px 0px; animation: 1s linear -0.06s infinite normal forwards running blink-e77b8166-3532-4cdd-ad5f-3db6d78bbf74;"><path d="M285.85-6.91L285.85-6.91L285.85-6.91Q285.85-5.69 285.56-4.37L285.56-4.37L285.56-4.37Q285.27-3.05 284.76-1.79L284.76-1.79L284.76-1.79Q284.24-0.53 283.51 0.58L283.51 0.58L283.51 0.58Q282.78 1.70 281.89 2.52L281.89 2.52L280.59 1.81L280.59 1.81Q280.89 1.28 281.13 0.62L281.13 0.62L281.13 0.62Q281.38-0.05 281.58-0.79L281.58-0.79L281.58-0.79Q281.79-1.53 281.94-2.31L281.94-2.31L281.94-2.31Q282.10-3.09 282.20-3.86L282.20-3.86L282.20-3.86Q282.31-4.63 282.36-5.36L282.36-5.36L282.36-5.36Q282.41-6.09 282.41-6.73L282.41-6.73L282.41-6.73Q282.41-7.09 282.39-7.51L282.39-7.51L282.39-7.51Q282.37-7.93 282.31-8.35L282.31-8.35L282.31-8.35Q282.24-8.77 282.11-9.15L282.11-9.15L282.11-9.15Q281.97-9.54 281.74-9.84L281.74-9.84L281.74-9.84Q281.51-10.14 281.17-10.32L281.17-10.32L281.17-10.32Q280.82-10.50 280.34-10.50L280.34-10.50L280.34-10.50Q279.87-10.50 279.54-10.25L279.54-10.25L279.54-10.25Q279.20-10.00 278.97-9.60L278.97-9.60L278.97-9.60Q278.73-9.20 278.59-8.70L278.59-8.70L278.59-8.70Q278.46-8.19 278.38-7.69L278.38-7.69L278.38-7.69Q278.31-7.18 278.29-6.72L278.29-6.72L278.29-6.72Q278.26-6.25 278.26-5.94L278.26-5.94L278.26 0L274.80 0L274.80-5.52L274.80-5.52Q274.80-5.88 274.81-6.38L274.81-6.38L274.81-6.38Q274.83-6.89 274.79-7.44L274.79-7.44L274.79-7.44Q274.75-8.00 274.66-8.55L274.66-8.55L274.66-8.55Q274.56-9.10 274.35-9.53L274.35-9.53L274.35-9.53Q274.14-9.96 273.78-10.23L273.78-10.23L273.78-10.23Q273.42-10.50 272.88-10.50L272.88-10.50L272.88-10.50Q272.42-10.50 272.10-10.24L272.10-10.24L272.10-10.24Q271.79-9.99 271.58-9.58L271.58-9.58L271.58-9.58Q271.37-9.18 271.25-8.67L271.25-8.67L271.25-8.67Q271.13-8.16 271.08-7.65L271.08-7.65L271.08-7.65Q271.02-7.15 271.01-6.69L271.01-6.69L271.01-6.69Q271.00-6.23 271.00-5.94L271.00-5.94L271.00 0L267.52 0L267.52-11.84L268.86-11.84L270.13-9.08L270.13-9.08Q270.56-10.52 271.49-11.33L271.49-11.33L271.49-11.33Q272.42-12.13 273.95-12.13L273.95-12.13L273.95-12.13Q275.34-12.13 276.25-11.56L276.25-11.56L276.25-11.56Q277.16-10.98 277.69-9.69L277.69-9.69L277.69-9.69Q277.98-10.25 278.35-10.71L278.35-10.71L278.35-10.71Q278.71-11.16 279.16-11.47L279.16-11.47L279.16-11.47Q279.60-11.79 280.15-11.96L280.15-11.96L280.15-11.96Q280.69-12.13 281.35-12.13L281.35-12.13L281.35-12.13Q282.56-12.13 283.41-11.74L283.41-11.74L283.41-11.74Q284.27-11.34 284.81-10.64L284.81-10.64L284.81-10.64Q285.36-9.95 285.60-8.99L285.60-8.99L285.60-8.99Q285.85-8.03 285.85-6.91" fill="#6f8bb2" stroke="none" stroke-width="none" transform="translate(-155.11666870117188,6.977897172407681)" style="fill: rgb(111, 139, 178);"></path></g><g class="path" style="opacity: 1; transform-origin: 138.67px 1.0332px 0px; animation: 1s linear -0.03s infinite normal forwards running blink-e77b8166-3532-4cdd-ad5f-3db6d78bbf74;"><path d="M300.08-11.84L300.08 0L296.61 0L296.61-1.42L296.61-1.42Q296.00-0.57 295.13-0.17L295.13-0.17L295.13-0.17Q294.27 0.24 293.23 0.24L293.23 0.24L293.23 0.24Q291.88 0.24 290.81-0.25L290.81-0.25L290.81-0.25Q289.74-0.73 289.01-1.56L289.01-1.56L289.01-1.56Q288.27-2.40 287.88-3.53L287.88-3.53L287.88-3.53Q287.49-4.66 287.49-5.95L287.49-5.95L287.49-5.95Q287.49-7.24 287.88-8.37L287.88-8.37L287.88-8.37Q288.27-9.50 289.01-10.33L289.01-10.33L289.01-10.33Q289.74-11.17 290.81-11.65L290.81-11.65L290.81-11.65Q291.88-12.13 293.23-12.13L293.23-12.13L293.23-12.13Q293.92-12.13 294.54-11.93L294.54-11.93L294.54-11.93Q295.16-11.72 295.68-11.35L295.68-11.35L295.68-11.35Q296.19-10.97 296.59-10.44L296.59-10.44L296.59-10.44Q296.98-9.92 297.21-9.27L297.21-9.27L298.75-11.84L300.08-11.84zM296.59-5.95L296.59-5.95L296.59-5.95Q296.59-6.41 296.55-6.92L296.55-6.92L296.55-6.92Q296.50-7.43 296.39-7.94L296.39-7.94L296.39-7.94Q296.28-8.44 296.08-8.90L296.08-8.90L296.08-8.90Q295.88-9.35 295.56-9.71L295.56-9.71L295.56-9.71Q295.25-10.06 294.81-10.26L294.81-10.26L294.81-10.26Q294.37-10.47 293.78-10.47L293.78-10.47L293.78-10.47Q293.20-10.47 292.77-10.26L292.77-10.26L292.77-10.26Q292.34-10.05 292.03-9.70L292.03-9.70L292.03-9.70Q291.72-9.34 291.52-8.88L291.52-8.88L291.52-8.88Q291.32-8.42 291.21-7.92L291.21-7.92L291.21-7.92Q291.10-7.41 291.05-6.91L291.05-6.91L291.05-6.91Q291.01-6.40 291.01-5.95L291.01-5.95L291.01-5.95Q291.01-5.50 291.05-4.98L291.05-4.98L291.05-4.98Q291.10-4.47 291.21-3.97L291.21-3.97L291.21-3.97Q291.32-3.47 291.52-3.00L291.52-3.00L291.52-3.00Q291.72-2.54 292.03-2.19L292.03-2.19L292.03-2.19Q292.34-1.84 292.77-1.63L292.77-1.63L292.77-1.63Q293.20-1.42 293.78-1.42L293.78-1.42L293.78-1.42Q294.32-1.42 294.73-1.64L294.73-1.64L294.73-1.64Q295.15-1.86 295.46-2.23L295.46-2.23L295.46-2.23Q295.77-2.59 295.99-3.07L295.99-3.07L295.99-3.07Q296.20-3.54 296.34-4.04L296.34-4.04L296.34-4.04Q296.47-4.54 296.53-5.04L296.53-5.04L296.53-5.04Q296.59-5.54 296.59-5.95" fill="#6f8bb2" stroke="none" stroke-width="none" transform="translate(-155.11666870117188,6.977897172407681)" style="fill: rgb(111, 139, 178);"></path></g><g class="path" style="opacity: 1; transform-origin: 151.293px -1.12305px 0px; animation: 1s linear 0s infinite normal forwards running blink-e77b8166-3532-4cdd-ad5f-3db6d78bbf74;"><path d="M307.43-10.47L307.43 0L303.96 0L303.96-10.47L301.80-10.47L301.80-11.84L303.96-11.84L303.96-16.20L307.43-16.20L307.43-11.84L311.02-11.84L311.02-10.47L307.43-10.47" fill="#6f8bb2" stroke="none" stroke-width="none" transform="translate(-155.11666870117188,6.977897172407681)" style="fill: rgb(111, 139, 178);"></path></g></g>
</g>
</g>
<style id="blink-e77b8166-3532-4cdd-ad5f-3db6d78bbf74" data-anikit="">@keyframes blink-e77b8166-3532-4cdd-ad5f-3db6d78bbf74 {
  0% { opacity: 1; }
  49.75% { opacity: 1; }
  50.25% { opacity: 0; }
  99.5% { opacity: 0; }
  100% { opacity: 1; }
}</style></svg>